<svg width="15" height="15" viewBox="0 0 15 15" fill="none" xmlns="http://www.w3.org/2000/svg">
<mask id="path-1-inside-1_28_158" fill="white">
<path d="M0.5 0C0.367392 0 0.240215 0.0526784 0.146447 0.146447C0.0526784 0.240215 0 0.367392 0 0.5C0 0.632608 0.0526784 0.759785 0.146447 0.853553C0.240215 0.947322 0.367392 1 0.5 1H1.61L2.011 2.607L3.509 10.592C3.53045 10.7066 3.59126 10.8101 3.68091 10.8846C3.77057 10.9591 3.88343 10.9999 4 11H5C4.46957 11 3.96086 11.2107 3.58579 11.5858C3.21071 11.9609 3 12.4696 3 13C3 13.5304 3.21071 14.0391 3.58579 14.4142C3.96086 14.7893 4.46957 15 5 15C5.53043 15 6.03914 14.7893 6.41421 14.4142C6.78929 14.0391 7 13.5304 7 13C7 12.4696 6.78929 11.9609 6.41421 11.5858C6.03914 11.2107 5.53043 11 5 11H12C11.4696 11 10.9609 11.2107 10.5858 11.5858C10.2107 11.9609 10 12.4696 10 13C10 13.5304 10.2107 14.0391 10.5858 14.4142C10.9609 14.7893 11.4696 15 12 15C12.5304 15 13.0391 14.7893 13.4142 14.4142C13.7893 14.0391 14 13.5304 14 13C14 12.4696 13.7893 11.9609 13.4142 11.5858C13.0391 11.2107 12.5304 11 12 11H13C13.1166 10.9999 13.2294 10.9591 13.3191 10.8846C13.4087 10.8101 13.4696 10.7066 13.491 10.592L14.991 2.592C15.0045 2.51984 15.002 2.44558 14.9835 2.37452C14.9651 2.30345 14.9313 2.23731 14.8844 2.1808C14.8375 2.12429 14.7788 2.0788 14.7124 2.04755C14.6459 2.0163 14.5734 2.00007 14.5 2H2.89L2.485 0.379C2.45801 0.270784 2.39561 0.174699 2.30773 0.106025C2.21985 0.0373507 2.11153 3.08115e-05 2 0H0.5ZM4.415 10L3.102 3H13.898L12.585 10H4.415ZM6 13C6 13.2652 5.89464 13.5196 5.70711 13.7071C5.51957 13.8946 5.26522 14 5 14C4.73478 14 4.48043 13.8946 4.29289 13.7071C4.10536 13.5196 4 13.2652 4 13C4 12.7348 4.10536 12.4804 4.29289 12.2929C4.48043 12.1054 4.73478 12 5 12C5.26522 12 5.51957 12.1054 5.70711 12.2929C5.89464 12.4804 6 12.7348 6 13ZM13 13C13 13.2652 12.8946 13.5196 12.7071 13.7071C12.5196 13.8946 12.2652 14 12 14C11.7348 14 11.4804 13.8946 11.2929 13.7071C11.1054 13.5196 11 13.2652 11 13C11 12.7348 11.1054 12.4804 11.2929 12.2929C11.4804 12.1054 11.7348 12 12 12C12.2652 12 12.5196 12.1054 12.7071 12.2929C12.8946 12.4804 13 12.7348 13 13Z"/>
<path d="M9 5.15625C9 5.03193 8.94732 4.9127 8.85355 4.82479C8.75979 4.73689 8.63261 4.6875 8.5 4.6875C8.36739 4.6875 8.24021 4.73689 8.14645 4.82479C8.05268 4.9127 8 5.03193 8 5.15625V6.5625H6.5C6.36739 6.5625 6.24021 6.61189 6.14645 6.69979C6.05268 6.7877 6 6.90693 6 7.03125C6 7.15557 6.05268 7.2748 6.14645 7.36271C6.24021 7.45061 6.36739 7.5 6.5 7.5H8V8.90625C8 9.03057 8.05268 9.1498 8.14645 9.23771C8.24021 9.32561 8.36739 9.375 8.5 9.375C8.63261 9.375 8.75979 9.32561 8.85355 9.23771C8.94732 9.1498 9 9.03057 9 8.90625V7.5H10.5C10.6326 7.5 10.7598 7.45061 10.8536 7.36271C10.9473 7.2748 11 7.15557 11 7.03125C11 6.90693 10.9473 6.7877 10.8536 6.69979C10.7598 6.61189 10.6326 6.5625 10.5 6.5625H9V5.15625Z"/>
</mask>
<path d="M0.5 0C0.367392 0 0.240215 0.0526784 0.146447 0.146447C0.0526784 0.240215 0 0.367392 0 0.5C0 0.632608 0.0526784 0.759785 0.146447 0.853553C0.240215 0.947322 0.367392 1 0.5 1H1.61L2.011 2.607L3.509 10.592C3.53045 10.7066 3.59126 10.8101 3.68091 10.8846C3.77057 10.9591 3.88343 10.9999 4 11H5C4.46957 11 3.96086 11.2107 3.58579 11.5858C3.21071 11.9609 3 12.4696 3 13C3 13.5304 3.21071 14.0391 3.58579 14.4142C3.96086 14.7893 4.46957 15 5 15C5.53043 15 6.03914 14.7893 6.41421 14.4142C6.78929 14.0391 7 13.5304 7 13C7 12.4696 6.78929 11.9609 6.41421 11.5858C6.03914 11.2107 5.53043 11 5 11H12C11.4696 11 10.9609 11.2107 10.5858 11.5858C10.2107 11.9609 10 12.4696 10 13C10 13.5304 10.2107 14.0391 10.5858 14.4142C10.9609 14.7893 11.4696 15 12 15C12.5304 15 13.0391 14.7893 13.4142 14.4142C13.7893 14.0391 14 13.5304 14 13C14 12.4696 13.7893 11.9609 13.4142 11.5858C13.0391 11.2107 12.5304 11 12 11H13C13.1166 10.9999 13.2294 10.9591 13.3191 10.8846C13.4087 10.8101 13.4696 10.7066 13.491 10.592L14.991 2.592C15.0045 2.51984 15.002 2.44558 14.9835 2.37452C14.9651 2.30345 14.9313 2.23731 14.8844 2.1808C14.8375 2.12429 14.7788 2.0788 14.7124 2.04755C14.6459 2.0163 14.5734 2.00007 14.5 2H2.89L2.485 0.379C2.45801 0.270784 2.39561 0.174699 2.30773 0.106025C2.21985 0.0373507 2.11153 3.08115e-05 2 0H0.5ZM4.415 10L3.102 3H13.898L12.585 10H4.415ZM6 13C6 13.2652 5.89464 13.5196 5.70711 13.7071C5.51957 13.8946 5.26522 14 5 14C4.73478 14 4.48043 13.8946 4.29289 13.7071C4.10536 13.5196 4 13.2652 4 13C4 12.7348 4.10536 12.4804 4.29289 12.2929C4.48043 12.1054 4.73478 12 5 12C5.26522 12 5.51957 12.1054 5.70711 12.2929C5.89464 12.4804 6 12.7348 6 13ZM13 13C13 13.2652 12.8946 13.5196 12.7071 13.7071C12.5196 13.8946 12.2652 14 12 14C11.7348 14 11.4804 13.8946 11.2929 13.7071C11.1054 13.5196 11 13.2652 11 13C11 12.7348 11.1054 12.4804 11.2929 12.2929C11.4804 12.1054 11.7348 12 12 12C12.2652 12 12.5196 12.1054 12.7071 12.2929C12.8946 12.4804 13 12.7348 13 13Z" fill="black"/>
<path d="M9 5.15625C9 5.03193 8.94732 4.9127 8.85355 4.82479C8.75979 4.73689 8.63261 4.6875 8.5 4.6875C8.36739 4.6875 8.24021 4.73689 8.14645 4.82479C8.05268 4.9127 8 5.03193 8 5.15625V6.5625H6.5C6.36739 6.5625 6.24021 6.61189 6.14645 6.69979C6.05268 6.7877 6 6.90693 6 7.03125C6 7.15557 6.05268 7.2748 6.14645 7.36271C6.24021 7.45061 6.36739 7.5 6.5 7.5H8V8.90625C8 9.03057 8.05268 9.1498 8.14645 9.23771C8.24021 9.32561 8.36739 9.375 8.5 9.375C8.63261 9.375 8.75979 9.32561 8.85355 9.23771C8.94732 9.1498 9 9.03057 9 8.90625V7.5H10.5C10.6326 7.5 10.7598 7.45061 10.8536 7.36271C10.9473 7.2748 11 7.15557 11 7.03125C11 6.90693 10.9473 6.7877 10.8536 6.69979C10.7598 6.61189 10.6326 6.5625 10.5 6.5625H9V5.15625Z" fill="black"/>
<path d="M0.5 0L0.5 -2L0.5 0ZM0 0.5L-2 0.5L0 0.5ZM0.5 1V3V1ZM1.61 1L3.5505 0.515781L3.17226 -1H1.61V1ZM2.011 2.607L3.97671 2.23823L3.96581 2.18013L3.9515 2.12278L2.011 2.607ZM3.509 10.592L5.47485 10.224L5.47471 10.2232L3.509 10.592ZM4 11L3.99815 13H4V11ZM3 13L1 13L3 13ZM7 13L9 13L7 13ZM13 11L13 13L13.0019 13L13 11ZM13.491 10.592L11.5253 10.2234L11.5251 10.224L13.491 10.592ZM14.991 2.592L16.9567 2.96058L16.9569 2.96L14.991 2.592ZM14.5 2L14.5019 0H14.5V2ZM2.89 2L0.949645 2.48479L1.32821 4H2.89V2ZM2.485 0.379L0.544447 0.863L0.544645 0.86379L2.485 0.379ZM2 0L2.00055 -2H2V0ZM4.415 10L2.44928 10.3687L2.75526 12H4.415V10ZM3.102 3V1H0.691978L1.13628 3.36871L3.102 3ZM13.898 3L15.8637 3.36871L16.308 1H13.898V3ZM12.585 10V12H14.2447L14.5507 10.3687L12.585 10ZM6 13H4H6ZM8 6.5625V8.5625H10V6.5625H8ZM8 7.5H10V5.5H8V7.5ZM9 7.5V5.5H7V7.5H9ZM9 6.5625H7V8.5625H9V6.5625ZM0.5 -2C-0.163041 -2 -0.798926 -1.73661 -1.26777 -1.26777L1.56066 1.56066C1.27936 1.84196 0.897825 2 0.5 2L0.5 -2ZM-1.26777 -1.26777C-1.73661 -0.798926 -2 -0.163041 -2 0.5L2 0.5C2 0.897825 1.84196 1.27936 1.56066 1.56066L-1.26777 -1.26777ZM-2 0.5C-2 1.16304 -1.73661 1.79893 -1.26777 2.26777L1.56066 -0.56066C1.84196 -0.279356 2 0.102175 2 0.5L-2 0.5ZM-1.26777 2.26777C-0.798926 2.73661 -0.163041 3 0.5 3L0.5 -1C0.897825 -1 1.27936 -0.841965 1.56066 -0.56066L-1.26777 2.26777ZM0.5 3H1.61V-1H0.5V3ZM-0.330498 1.48422L0.070502 3.09122L3.9515 2.12278L3.5505 0.515781L-0.330498 1.48422ZM0.0452918 2.97577L1.54329 10.9608L5.47471 10.2232L3.97671 2.23823L0.0452918 2.97577ZM1.54315 10.96C1.65039 11.5329 1.95443 12.0503 2.4027 12.4228L4.95912 9.34632C5.22808 9.56982 5.41051 9.88027 5.47485 10.224L1.54315 10.96ZM2.4027 12.4228C2.85097 12.7953 3.4153 12.9995 3.99815 13L4.00185 9C4.35156 9.00032 4.69016 9.12283 4.95912 9.34632L2.4027 12.4228ZM4 13H5V9H4V13ZM5 9C3.93913 9 2.92172 9.42143 2.17157 10.1716L5 13L5 13V9ZM2.17157 10.1716C1.42143 10.9217 1 11.9391 1 13L5 13L5 13L2.17157 10.1716ZM1 13C1 14.0609 1.42143 15.0783 2.17157 15.8284L5 13L5 13L1 13ZM2.17157 15.8284C2.92172 16.5786 3.93913 17 5 17V13L5 13L2.17157 15.8284ZM5 17C6.06087 17 7.07828 16.5786 7.82843 15.8284L5 13L5 13V17ZM7.82843 15.8284C8.57857 15.0783 9 14.0609 9 13L5 13L5 13L7.82843 15.8284ZM9 13C9 11.9391 8.57857 10.9217 7.82843 10.1716L5 13L5 13L9 13ZM7.82843 10.1716C7.07828 9.42143 6.06087 9 5 9V13L5 13L7.82843 10.1716ZM5 13H12V9H5V13ZM12 9C10.9391 9 9.92172 9.42143 9.17157 10.1716L12 13L12 13V9ZM9.17157 10.1716C8.42143 10.9217 8 11.9391 8 13H12L12 13L9.17157 10.1716ZM8 13C8 14.0609 8.42143 15.0783 9.17157 15.8284L12 13L12 13H8ZM9.17157 15.8284C9.92172 16.5786 10.9391 17 12 17V13L12 13L9.17157 15.8284ZM12 17C13.0609 17 14.0783 16.5786 14.8284 15.8284L12 13L12 13V17ZM14.8284 15.8284C15.5786 15.0783 16 14.0609 16 13H12L12 13L14.8284 15.8284ZM16 13C16 11.9391 15.5786 10.9217 14.8284 10.1716L12 13L12 13H16ZM14.8284 10.1716C14.0783 9.42143 13.0609 9 12 9V13L12 13L14.8284 10.1716ZM12 13H13V9H12V13ZM13.0019 13C13.5847 12.9995 14.149 12.7953 14.5973 12.4228L12.0409 9.34632C12.3098 9.12282 12.6484 9.00032 12.9981 9L13.0019 13ZM14.5973 12.4228C15.0456 12.0503 15.3496 11.5329 15.4569 10.96L11.5251 10.224C11.5895 9.88027 11.7719 9.56982 12.0409 9.34632L14.5973 12.4228ZM15.4567 10.9606L16.9567 2.96058L13.0253 2.22342L11.5253 10.2234L15.4567 10.9606ZM16.9569 2.96C17.0244 2.59918 17.0117 2.22792 16.9195 1.87259L13.0475 2.87645C12.9923 2.66325 12.9846 2.4405 13.0251 2.224L16.9569 2.96ZM16.9195 1.87259C16.8274 1.51726 16.6582 1.18657 16.4238 0.904019L13.345 3.45759C13.2044 3.28805 13.1028 3.08964 13.0475 2.87645L16.9195 1.87259ZM16.4238 0.904019C16.1895 0.621473 15.8958 0.393998 15.5636 0.237756L13.8611 3.85735C13.6618 3.7636 13.4856 3.62712 13.345 3.45759L16.4238 0.904019ZM15.5636 0.237756C15.2314 0.0815136 14.8689 0.000340834 14.5019 8.57778e-07L14.4981 4C14.2779 3.9998 14.0604 3.95109 13.8611 3.85735L15.5636 0.237756ZM14.5 0H2.89V4H14.5V0ZM4.83036 1.51521L4.42536 -0.10579L0.544645 0.86379L0.949645 2.48479L4.83036 1.51521ZM4.42555 -0.105C4.2906 -0.64608 3.97861 -1.12651 3.53921 -1.46988L1.07625 1.68193C0.81261 1.4759 0.625419 1.18765 0.544447 0.863L4.42555 -0.105ZM3.53921 -1.46988C3.0998 -1.81325 2.55821 -1.99985 2.00055 -2L1.99945 2C1.66485 1.99991 1.3399 1.88795 1.07625 1.68193L3.53921 -1.46988ZM2 -2H0.5V2H2V-2ZM6.38072 9.63129L5.06772 2.63129L1.13628 3.36871L2.44928 10.3687L6.38072 9.63129ZM3.102 5H13.898V1H3.102V5ZM11.9323 2.63129L10.6193 9.63129L14.5507 10.3687L15.8637 3.36871L11.9323 2.63129ZM12.585 8H4.415V12H12.585V8ZM4 13C4 12.7348 4.10536 12.4804 4.29289 12.2929L7.12132 15.1213C7.68393 14.5587 8 13.7957 8 13H4ZM4.29289 12.2929C4.48043 12.1054 4.73478 12 5 12V16C5.79565 16 6.55871 15.6839 7.12132 15.1213L4.29289 12.2929ZM5 12C5.26522 12 5.51957 12.1054 5.70711 12.2929L2.87868 15.1213C3.44129 15.6839 4.20435 16 5 16V12ZM5.70711 12.2929C5.89464 12.4804 6 12.7348 6 13H2C2 13.7957 2.31607 14.5587 2.87868 15.1213L5.70711 12.2929ZM6 13C6 13.2652 5.89464 13.5196 5.70711 13.7071L2.87868 10.8787C2.31607 11.4413 2 12.2043 2 13H6ZM5.70711 13.7071C5.51957 13.8946 5.26522 14 5 14V10C4.20435 10 3.44129 10.3161 2.87868 10.8787L5.70711 13.7071ZM5 14C4.73478 14 4.48043 13.8946 4.29289 13.7071L7.12132 10.8787C6.55871 10.3161 5.79565 10 5 10V14ZM4.29289 13.7071C4.10536 13.5196 4 13.2652 4 13L8 13C8 12.2043 7.68393 11.4413 7.12132 10.8787L4.29289 13.7071ZM11 13C11 12.7348 11.1054 12.4804 11.2929 12.2929L14.1213 15.1213C14.6839 14.5587 15 13.7957 15 13H11ZM11.2929 12.2929C11.4804 12.1054 11.7348 12 12 12V16C12.7957 16 13.5587 15.6839 14.1213 15.1213L11.2929 12.2929ZM12 12C12.2652 12 12.5196 12.1054 12.7071 12.2929L9.87868 15.1213C10.4413 15.6839 11.2043 16 12 16V12ZM12.7071 12.2929C12.8946 12.4804 13 12.7348 13 13H9C9 13.7957 9.31607 14.5587 9.87868 15.1213L12.7071 12.2929ZM13 13C13 13.2652 12.8946 13.5196 12.7071 13.7071L9.87868 10.8787C9.31607 11.4413 9 12.2043 9 13H13ZM12.7071 13.7071C12.5196 13.8946 12.2652 14 12 14V10C11.2043 10 10.4413 10.3161 9.87868 10.8787L12.7071 13.7071ZM12 14C11.7348 14 11.4804 13.8946 11.2929 13.7071L14.1213 10.8787C13.5587 10.3161 12.7957 10 12 10V14ZM11.2929 13.7071C11.1054 13.5196 11 13.2652 11 13H15C15 12.2043 14.6839 11.4413 14.1213 10.8787L11.2929 13.7071ZM11 5.15625C11 4.45832 10.7031 3.81726 10.2214 3.36572L7.48567 6.28387C7.19156 6.00814 7 5.60554 7 5.15625H11ZM10.2214 3.36572C9.74416 2.91827 9.12288 2.6875 8.5 2.6875V6.6875C8.14233 6.6875 7.77541 6.5555 7.48567 6.28387L10.2214 3.36572ZM8.5 2.6875C7.87712 2.6875 7.25584 2.91827 6.77856 3.36572L9.51433 6.28387C9.22459 6.5555 8.85767 6.6875 8.5 6.6875V2.6875ZM6.77856 3.36572C6.29692 3.81726 6 4.45832 6 5.15625H10C10 5.60554 9.80844 6.00814 9.51433 6.28387L6.77856 3.36572ZM6 5.15625V6.5625H10V5.15625H6ZM8 4.5625H6.5V8.5625H8V4.5625ZM6.5 4.5625C5.87711 4.5625 5.25584 4.79327 4.77856 5.24072L7.51433 8.15887C7.22459 8.4305 6.85767 8.5625 6.5 8.5625V4.5625ZM4.77856 5.24072C4.29692 5.69226 4 6.33332 4 7.03125H8C8 7.48054 7.80844 7.88314 7.51433 8.15887L4.77856 5.24072ZM4 7.03125C4 7.72918 4.29692 8.37024 4.77856 8.82178L7.51433 5.90363C7.80844 6.17936 8 6.58196 8 7.03125H4ZM4.77856 8.82178C5.25584 9.26923 5.87711 9.5 6.5 9.5V5.5C6.85767 5.5 7.22459 5.632 7.51433 5.90363L4.77856 8.82178ZM6.5 9.5H8V5.5H6.5V9.5ZM6 7.5V8.90625H10V7.5H6ZM6 8.90625C6 9.60417 6.29691 10.2452 6.77856 10.6968L9.51433 7.77863C9.80844 8.05437 10 8.45697 10 8.90625H6ZM6.77856 10.6968C7.25585 11.1442 7.87713 11.375 8.5 11.375V7.375C8.85766 7.375 9.22458 7.507 9.51433 7.77863L6.77856 10.6968ZM8.5 11.375C9.12287 11.375 9.74415 11.1442 10.2214 10.6968L7.48567 7.77863C7.77542 7.507 8.14234 7.375 8.5 7.375V11.375ZM10.2214 10.6968C10.7031 10.2452 11 9.60417 11 8.90625H7C7 8.45697 7.19156 8.05437 7.48567 7.77863L10.2214 10.6968ZM11 8.90625V7.5H7V8.90625H11ZM9 9.5H10.5V5.5H9V9.5ZM10.5 9.5C11.1229 9.5 11.7442 9.26923 12.2214 8.82178L9.48567 5.90363C9.77541 5.632 10.1423 5.5 10.5 5.5V9.5ZM12.2214 8.82178C12.7031 8.37024 13 7.72918 13 7.03125H9C9 6.58196 9.19156 6.17936 9.48567 5.90363L12.2214 8.82178ZM13 7.03125C13 6.33332 12.7031 5.69226 12.2214 5.24072L9.48567 8.15887C9.19156 7.88314 9 7.48054 9 7.03125H13ZM12.2214 5.24072C11.7442 4.79327 11.1229 4.5625 10.5 4.5625V8.5625C10.1423 8.5625 9.77541 8.4305 9.48567 8.15887L12.2214 5.24072ZM10.5 4.5625H9V8.5625H10.5V4.5625ZM11 6.5625V5.15625H7V6.5625H11Z" fill="black" mask="url(#path-1-inside-1_28_158)"/>
</svg>
