<svg width="101" height="80" viewBox="0 0 101 80" fill="none" xmlns="http://www.w3.org/2000/svg">
<path d="M20.5521 13.6459H80.4479C80.4479 13.6459 86.4375 13.6459 86.4375 18.4375V23.2292C86.4375 23.2292 86.4375 28.0209 80.4479 28.0209H20.5521C20.5521 28.0209 14.5625 28.0209 14.5625 23.2292V18.4375C14.5625 18.4375 14.5625 13.6459 20.5521 13.6459Z" stroke="#DBD0C8" stroke-width="2" stroke-linecap="round" stroke-linejoin="round"/>
<path d="M75.0493 71.6762C74.8862 72.848 74.1887 73.9307 73.0903 74.7169C71.9918 75.5031 70.5696 75.9377 69.0957 75.9375H31.9044C30.4304 75.9377 29.0082 75.5031 27.9098 74.7169C26.8113 73.9307 26.1138 72.848 25.9507 71.6762L20.5521 28.0209H80.4479L75.0493 71.6762Z" stroke="#DBD0C8" stroke-width="2" stroke-linecap="round" stroke-linejoin="round"/>
<path d="M76.1155 6.71069C75.6178 5.9147 74.8529 5.24533 73.9064 4.77759C72.9599 4.30985 71.8693 4.06223 70.7568 4.0625H30.2432C29.1307 4.06223 28.0401 4.30985 27.0936 4.77759C26.1472 5.24533 25.3822 5.9147 24.8846 6.71069L20.5521 13.6458H80.4479L76.1155 6.71069Z" stroke="#DBD0C8" stroke-width="2" stroke-linecap="round" stroke-linejoin="round"/>
<path d="M38.5208 51.9792C38.5208 54.5209 39.7829 56.9584 42.0295 58.7556C44.276 60.5529 47.3229 61.5625 50.5 61.5625C53.6771 61.5625 56.724 60.5529 58.9706 58.7556C61.2171 56.9584 62.4792 54.5209 62.4792 51.9792C62.4792 49.4375 61.2171 47 58.9706 45.2028C56.724 43.4055 53.6771 42.3959 50.5 42.3959C47.3229 42.3959 44.276 43.4055 42.0295 45.2028C39.7829 47 38.5208 49.4375 38.5208 51.9792Z" stroke="#DBD0C8" stroke-width="2" stroke-linecap="round" stroke-linejoin="round"/>
</svg>
