<svg width="103" height="90" viewBox="0 0 103 90" fill="none" xmlns="http://www.w3.org/2000/svg">
<path d="M31.2117 51.063C47.7289 35.5117 58.795 41.9532 64.5 47.4949C70.205 53.0365 76.7677 63.7183 60.2504 79.2697C43.7331 94.8211 32.666 88.3806 26.9609 82.8388C21.2558 77.297 14.6944 66.6143 31.2117 51.063Z" stroke="#EEE8E4" stroke-width="2" stroke-linecap="round" stroke-linejoin="round"/>
<path d="M64.3158 47.3229C60.725 48.6506 57.0593 49.0182 52.8091 53.0828C42.3331 63.1013 46.2471 69.1703 39.5953 75.5315C34.1346 80.7535 30.0265 80.6765 26.1372 81.9789" stroke="#EEE8E4" stroke-width="2" stroke-linecap="round" stroke-linejoin="round"/>
<path d="M11.9809 10.7298C28.4981 -4.82156 39.5643 1.62 45.2693 7.16161C50.9743 12.7033 57.5369 23.3851 41.0196 38.9364C24.5024 54.4878 13.4352 48.0473 7.73012 42.5055C2.02503 36.9637 -4.53638 26.2811 11.9809 10.7298Z" stroke="#EEE8E4" stroke-width="2" stroke-linecap="round" stroke-linejoin="round"/>
<path d="M45.085 6.98962C41.4943 8.31736 37.8285 8.68498 33.5783 12.7496C23.1024 22.7681 27.0163 28.837 20.3646 35.1982C14.9039 40.4203 10.7957 40.3433 6.90643 41.6457" stroke="#EEE8E4" stroke-width="2" stroke-linecap="round" stroke-linejoin="round"/>
<path d="M61.9809 10.7298C78.4981 -4.82156 89.5643 1.62 95.2693 7.16161C100.974 12.7033 107.537 23.3851 91.0196 38.9364C74.5024 54.4878 63.4352 48.0473 57.7301 42.5055C52.025 36.9637 45.4636 26.2811 61.9809 10.7298Z" stroke="#EEE8E4" stroke-width="2" stroke-linecap="round" stroke-linejoin="round"/>
<path d="M95.085 6.98962C91.4942 8.31736 87.8284 8.68498 83.5783 12.7496C73.1023 22.7681 77.0163 28.837 70.3645 35.1982C64.9038 40.4203 60.7957 40.3433 56.9064 41.6457" stroke="#EEE8E4" stroke-width="2" stroke-linecap="round" stroke-linejoin="round"/>
</svg>
