<svg width="28" height="28" viewBox="0 0 28 29" fill="none" xmlns="http://www.w3.org/2000/svg">
<g clip-path="url(#clip0_10_623)">
<path d="M0.583332 27.9167H27.4167" stroke="#0E0A08" stroke-width="2" stroke-linecap="round" stroke-linejoin="round"/>
<path d="M11.3167 8.16491C11.4181 8.24477 11.5434 8.28819 11.6725 8.28819C11.8016 8.28819 11.9269 8.24477 12.0283 8.16491C13.0223 7.39024 15.7617 5.09774 15.7617 3.31624C15.75 0.803244 12.4098 0.00757735 11.6667 3.06658C10.9247 0.00757735 7.58333 0.803244 7.58333 3.31624C7.58333 5.09774 10.3168 7.39024 11.3167 8.16491Z" stroke="#0E0A08" stroke-width="2" stroke-linecap="round" stroke-linejoin="round"/>
<path d="M20.4167 19.1666C20.4167 21.4872 19.4948 23.7128 17.8539 25.3538C16.2129 26.9947 13.9873 27.9166 11.6667 27.9166C9.34602 27.9166 7.12043 26.9947 5.47948 25.3538C3.83854 23.7128 2.91667 21.4872 2.91667 19.1666V12.1666C2.91667 12.0119 2.97813 11.8635 3.08752 11.7541C3.19692 11.6447 3.34529 11.5833 3.5 11.5833H19.8333C19.988 11.5833 20.1364 11.6447 20.2458 11.7541C20.3552 11.8635 20.4167 12.0119 20.4167 12.1666V19.1666Z" stroke="#0E0A08" stroke-width="2" stroke-linecap="round" stroke-linejoin="round"/>
<path d="M20.4167 12.75H23.3333C24.4163 12.75 25.4549 13.1802 26.2207 13.946C26.9865 14.7118 27.4167 15.7504 27.4167 16.8333C27.4167 17.9163 26.9865 18.9549 26.2207 19.7207C25.4549 20.4865 24.4163 20.9167 23.3333 20.9167H20.2417" stroke="#0E0A08" stroke-width="2" stroke-linecap="round" stroke-linejoin="round"/>
</g>
<defs>
<clipPath id="clip0_10_623">
<rect width="28" height="28" fill="white" transform="translate(0 0.5)"/>
</clipPath>
</defs>
</svg>
