<svg width="149" height="157" viewBox="0 0 149 157" fill="none" xmlns="http://www.w3.org/2000/svg">
<path d="M147.778 119.749C147.643 119.574 147.499 119.412 147.345 119.253C148.543 117.691 148.023 115.202 147.566 113.484C147.091 111.793 146.329 110.084 145.58 109.024C143.961 106.735 140.256 104.09 135.142 104.165C129.525 104.243 129.429 106.729 128.764 109.979C128.401 111.619 128.002 113.442 128.542 114.769C127.681 114.895 126.9 115.091 126.212 115.352C126.508 110.649 123.95 107.024 118.924 106.699C120.36 103.285 119.547 98.888 117.346 95.8519C115.945 93.8037 113.409 92.0859 111.015 92.1069C110.784 91.4341 110.366 90.8094 109.765 90.3079L108.943 89.6172C107.805 88.6621 106.362 88.1576 104.887 88.1396C105.405 86.8662 105.44 85.4277 104.9 84.0671L104.514 83.0971C104.103 82.0639 103.287 81.244 102.217 80.7876C100.575 80.0758 98.1291 80.3221 97.3065 82.0069C97.0012 82.6285 96.9755 83.3253 97.2293 83.965L97.9427 85.7519C92.0235 83.5535 85.2655 92.4071 86.1005 97.4974C84.3299 99.2153 83.2534 101.474 83.067 103.843C79.2365 104.732 76.6142 108.57 77.3822 112.201L77.5461 113.075C72.3755 114.637 71.8197 121.241 76.582 123.563C76.0968 123.872 75.4605 124.194 75.5859 124.842L80.5347 153.818C80.7596 155.137 81.9615 156.095 83.3915 156.095C87.4148 156.098 116.121 156.089 116.15 156.095C117.255 156.095 118.255 155.5 118.74 154.59C118.981 154.428 119.212 154.23 119.399 154.028C123.795 156.461 131.465 151.259 134.416 149.277C137.613 147.04 144.856 141.397 143.51 137.138C145.843 136.003 147.109 133.396 148.289 128.837C149.378 124.353 149.224 121.635 147.774 119.746L147.778 119.749ZM130.657 110.343C131.287 107.778 130.754 105.958 135.179 105.967C139.51 105.901 142.624 108.108 143.977 110.018C145.172 111.718 146.831 116.268 145.857 118.103C144.482 117.28 142.563 116.686 140.918 116.205C138.315 115.427 135.346 114.803 132.694 114.641C132.151 114.605 131.624 114.586 131.113 114.586C130.831 114.614 130.506 114.433 130.461 114.331C129.928 113.64 130.368 111.655 130.657 110.34L130.657 110.343ZM142.637 135.546C140.728 133.062 138.215 130.957 135.358 128.692C131.801 125.944 128.546 123.773 125.412 122.19C131.849 123.407 142.73 129.723 142.855 135.45C142.778 135.492 142.704 135.525 142.637 135.549L142.637 135.546ZM107.661 90.9565L108.483 91.6473C108.962 92.0467 109.229 92.5843 109.29 93.1369C109.344 93.6505 109.219 94.1791 108.92 94.6145C108.702 94.9839 108.3 95.2843 107.831 95.1401C107.718 95.1101 107.616 95.056 107.529 94.9809L103.869 91.9116C103.644 91.4641 103.355 90.9745 103.062 90.5271C103.229 90.3979 103.387 90.2628 103.538 90.1216C104.974 89.6982 106.533 90.0105 107.661 90.9565ZM99.0646 82.7546C99.1546 82.5714 99.3153 82.4303 99.5177 82.3582C100.758 81.8987 102.272 82.5444 102.712 83.7216L103.098 84.6917C103.715 86.2383 103.239 87.9472 101.982 89.0134C101.655 88.5899 101.24 88.0974 100.745 87.6109L99.0421 83.3342C98.965 83.145 98.9746 82.9378 99.0646 82.7546ZM88.7945 93.2869C90.0703 90.6681 92.9528 87.2953 95.9704 87.1902C97.0726 87.1872 98.1523 87.7128 99.2353 88.764C100.72 90.2476 102.683 92.8664 102.796 94.9176C102.966 98.4645 96.9698 100.179 93.666 100.251C88.4472 100.375 86.7443 97.6326 88.7945 93.2869ZM75.2815 119.07C74.8798 116.91 76.8176 114.58 79.2116 114.664C83.9451 114.664 89.7869 113.643 96.5837 111.625C101.828 110.069 105.607 108.51 105.765 108.444C106.25 108.243 106.472 107.711 106.256 107.255C106.041 106.801 105.472 106.594 104.984 106.795C104.836 106.855 90.4325 112.769 79.4648 112.859L79.2816 111.886C78.6678 108.994 80.898 105.979 84.0055 105.489C86.2132 105.867 87.9613 105.964 89.1535 105.964C90.2847 105.964 90.9177 105.879 90.9724 105.87C92.2224 105.654 91.9557 103.957 90.6896 104.089C90.6671 104.092 88.5687 104.363 85.0048 103.822C85.1559 102.203 85.7954 100.69 86.859 99.4194C89.4812 103.11 96.0432 102.321 99.7805 100.756C102.322 99.7167 104.781 97.8157 104.723 95.0496C105.186 95.401 106.365 96.5363 106.911 96.7345C107.975 97.212 109.334 96.9537 110.109 96.1248C110.707 95.5031 111.089 94.7103 111.198 93.9144C112.403 93.9955 113.624 94.5961 114.694 95.6263C115.276 97.3652 108.627 100.717 102.075 102.558C101.564 102.699 101.275 103.203 101.426 103.678C101.577 104.159 102.129 104.426 102.624 104.285C107.053 102.981 113.72 100.582 116.144 97.4522C117.751 100.083 118.512 104.026 116.571 107.143C111.995 113.411 104.778 115.018 104.704 115.033C104.183 115.141 103.859 115.625 103.974 116.111C104.09 116.601 104.62 116.904 105.128 116.793C105.449 116.727 112.901 115.09 117.921 108.486C118.718 108.453 120.582 108.504 122.079 109.567C122.687 109.999 123.175 110.558 123.538 111.243C124.293 113.916 117.831 117.318 116.035 118.222C115.135 118.658 115.472 119.925 116.472 119.925C116.619 119.925 116.767 119.895 116.909 119.826C116.986 119.79 118.789 118.928 120.726 117.643C122.307 116.595 123.503 115.576 124.309 114.597C124.316 115.318 124.229 116.021 124.043 116.691C122.626 118.042 121.565 119.156 120.942 120.598C117.78 120.015 115.871 121.009 113.759 122.49C112.927 122.763 112.127 123.133 111.394 123.592C107.885 121.397 103.287 121.394 99.7775 123.592C96.2652 121.394 91.673 121.394 88.1607 123.592C86.2423 122.388 83.8964 121.811 81.5923 121.97C80.7825 122.027 79.9823 122.169 79.2047 122.397C77.2123 122.313 75.5734 120.934 75.281 119.072L75.2815 119.07ZM109.159 154.157C106.697 153.95 103.342 153.671 101.803 151.787C100.559 150.166 100.633 147.742 100.556 145.742C100.479 141.063 101.147 134.954 104.371 132.636C105.325 132.092 106.53 131.566 107.391 131.275C106.247 136.753 108.673 150.042 115.541 153.917C114.262 154.241 111.231 154.337 109.155 154.157L109.159 154.157ZM91.7191 154.292L91.2756 149.223C93.2616 150.754 96.112 152.553 98.8146 152.637V154.295H91.7191L91.7191 154.292ZM100.955 125.023C103.767 123.281 107.665 123.329 110.419 125.149C109.545 126.125 108.909 127.353 108.741 129.131C106.971 129.293 105.181 130.149 103.648 130.933C102.369 131.642 101.543 132.618 100.737 134.09V125.158C100.807 125.113 100.878 125.065 100.952 125.023L100.955 125.023ZM91.1671 146.541C89.0269 143.91 88.6605 139.985 90.0873 136.85C90.6047 135.729 91.061 134.97 92.2693 134.789C93.3458 134.681 94.3998 134.934 95.4828 134.979C96.736 135.096 98.1918 135.126 99.3036 135.666C99.4932 135.762 99.6475 135.886 99.7246 136.06C99.776 136.192 99.776 136.339 99.7535 136.477C99.4996 137.276 99.294 138.117 99.1333 138.943C98.7091 141.111 98.5709 143.577 98.6288 145.832C98.6577 147.442 98.7348 149.325 99.1911 150.785C96.9384 151.157 92.3913 148.112 91.167 146.535L91.1671 146.541ZM98.8121 133.582C97.4142 133.255 95.8589 133.228 94.4513 133.081C92.9281 132.888 91.1799 132.807 89.9299 133.849L89.1683 125.134C92.0766 123.275 95.9166 123.284 98.8156 125.158V133.582L98.8121 133.582ZM113.013 144.346C114.771 148.121 116.564 151.148 118.01 152.8C117.965 152.854 117.913 152.911 117.849 152.968C111.486 150.95 108.613 138.844 109.127 133.6C109.873 136.856 111.194 140.388 113.016 144.349L113.013 144.346ZM82.4461 153.533L77.5905 125.103C80.4376 123.268 84.432 123.301 87.2378 125.184L88.2179 136.372C88.144 136.552 88.0733 136.735 88.0058 136.918C87.5592 138.129 87.3053 139.504 87.3021 140.739V141.03C87.331 143.156 87.9576 145.228 89.1467 146.973L89.7861 154.292H83.3977C82.9221 154.292 82.5199 153.974 82.4461 153.533ZM100.74 154.292V153.412C101.078 153.74 101.46 154.031 101.9 154.292H100.74ZM133.264 147.838C127.126 151.998 122.001 154.238 119.822 152.004C116.856 148.986 109.844 134.874 110.718 128.87C111.037 126.674 112.605 125.527 114.318 124.353C115.815 123.308 117.245 122.221 119.266 122.236C124.829 122.317 134.858 130.362 138.924 134.212C139.049 134.375 139.197 134.681 139.133 135.255C138.847 137.771 134.894 142.583 126.882 147.205C126.429 147.466 126.288 148.021 126.568 148.445C126.85 148.871 127.448 148.998 127.895 148.739C134.884 144.706 139.817 139.948 140.865 136.326C141.18 136.738 141.495 137.167 141.649 137.609C142.388 139.738 139.094 143.754 133.262 147.841L133.264 147.838ZM146.414 128.441C145.816 130.903 145.131 132.555 144.482 133.648C142.393 126.359 129.45 120.503 123.511 119.984C123.974 119.377 124.825 118.485 125.577 117.807C127.531 115.767 134.775 116.086 140.79 118.056C142.095 118.44 143.656 118.951 144.72 119.563C147.583 121.218 147.452 123.771 146.414 128.441Z" fill="#F4F0ED"/>
<path d="M90.2069 75.4936C90.3999 75.6163 90.6305 75.6825 90.8667 75.6825H114.613C114.849 75.6825 115.08 75.6163 115.273 75.4936C121.365 71.6148 126.123 66.0117 129.387 58.9669H133.748C140.854 58.9669 146.635 53.7205 146.635 47.2712C146.635 41.048 141.248 35.9595 134.486 35.6094C134.681 29.555 134.089 25.3619 134.053 25.1131C133.977 24.5947 133.49 24.2072 132.914 24.2072H72.5657C71.9895 24.2072 71.5025 24.5947 71.4268 25.1131C71.3746 25.4716 70.1644 34.0086 71.8251 44.5204C74.0402 58.5372 80.396 69.2475 90.2069 75.4936ZM144.337 47.2712C144.337 52.5701 139.587 56.8812 133.748 56.8812H130.29C131.816 53.121 132.948 48.9909 133.655 44.5204C134.035 42.1124 134.26 39.8168 134.387 37.6907C139.928 37.9931 144.337 42.168 144.337 47.2712ZM73.5992 26.293H131.881C132.447 31.7599 134.368 60.4982 114.247 73.5968H91.2331C71.1294 60.5083 73.0359 31.762 73.5992 26.293Z" fill="#F4F0ED"/>
<path d="M90.0768 13.7962C91.5849 14.834 92.509 15.5413 92.509 16.9396C92.509 17.5156 93.0235 17.9825 93.6581 17.9825C94.2926 17.9825 94.8071 17.5156 94.8071 16.9396C94.8071 14.4343 92.9539 13.1592 91.4654 12.1342C89.9572 11.0964 89.0332 10.3891 89.0332 8.99126C89.0332 7.59295 89.9572 6.88565 91.4654 5.84786C92.9545 4.8228 94.8071 3.54772 94.8071 1.04288C94.8071 0.466953 94.2926 0 93.6581 0C93.0235 0 92.509 0.466953 92.509 1.04288C92.509 2.44068 91.5849 3.14799 90.0768 4.18577C88.5882 5.21083 86.735 6.48591 86.735 8.99126C86.735 11.4961 88.5877 12.7712 90.0768 13.7962Z" fill="#F4F0ED"/>
<path d="M102.046 13.7962C103.554 14.834 104.478 15.5413 104.478 16.9396C104.478 17.5156 104.992 17.9825 105.627 17.9825C106.261 17.9825 106.776 17.5156 106.776 16.9396C106.776 14.4343 104.923 13.1592 103.434 12.1342C101.926 11.0964 101.002 10.3891 101.002 8.99126C101.002 7.59295 101.926 6.88565 103.434 5.84786C104.923 4.8228 106.776 3.54772 106.776 1.04288C106.776 0.466953 106.261 0 105.627 0C104.992 0 104.478 0.466953 104.478 1.04288C104.478 2.44068 103.554 3.14799 102.046 4.18577C100.557 5.21083 98.7038 6.48591 98.7038 8.99126C98.7038 11.4961 100.556 12.7712 102.046 13.7962Z" fill="#F4F0ED"/>
<path d="M114.014 13.7962C115.522 14.834 116.447 15.5413 116.447 16.9396C116.447 17.5156 116.961 17.9825 117.596 17.9825C118.23 17.9825 118.745 17.5156 118.745 16.9396C118.745 14.4343 116.892 13.1592 115.403 12.1342C113.895 11.0964 112.971 10.3891 112.971 8.99126C112.971 7.59295 113.895 6.88565 115.403 5.84786C116.892 4.8228 118.745 3.54772 118.745 1.04288C118.745 0.466953 118.23 0 117.596 0C116.961 0 116.447 0.466953 116.447 1.04288C116.447 2.44068 115.522 3.14799 114.015 4.18577C112.526 5.21083 110.673 6.48591 110.673 8.99126C110.673 11.4961 112.526 12.7712 114.014 13.7962Z" fill="#F4F0ED"/>
<path d="M64.2794 61.1517C64.2599 50.8448 56.4659 42.4255 46.7612 42.5733C24.053 43.7791 24.2003 78.8199 46.9913 79.7427C56.5241 79.7426 64.2794 71.403 64.2794 61.1517ZM45.5593 48.4533C46.1716 51.9598 47.6737 56.9466 51.3479 61.475C54.3899 65.2256 51.9242 70.058 49.3397 73.4353C49.2774 66.6186 46.0591 63.9749 44.9143 58.9255C43.969 54.0146 44.6083 50.6478 45.5593 48.4533ZM60.5909 61.1517C60.5909 68.09 56.7589 73.9886 51.4421 76.1492C54.7458 72.2966 58.9754 65.5895 54.5177 60.095C50.0969 54.6443 49.1113 48.274 48.8949 45.437C55.4939 46.5244 60.5909 53.1473 60.5909 61.1517ZM33.3914 61.1517C33.3914 54.0525 37.3976 48.0279 42.9073 45.9969C41.3501 48.5112 39.9938 52.7156 41.262 59.3028C42.6472 65.4332 46.7241 68.278 45.3828 76.9194C38.6401 75.9856 33.3914 69.2762 33.3914 61.1517Z" fill="#F4F0ED"/>
<path d="M24.7012 69.0956C20.024 66.2984 14.9122 65.3297 10.2942 66.4815C-5.28374 70.5713 -1.77563 91.8146 11.444 99.2332C28.0229 108.792 41.079 94.6791 34.5706 80.3817C32.5916 75.7387 29.085 71.7295 24.7012 69.0956ZM25.3136 95.3738C22.485 88.8848 18.3235 87.0593 15.1842 82.4947C12.283 78.0137 11.5211 74.6615 11.5373 72.3581C13.5473 75.5711 17.0125 80.0012 22.3617 83.519C26.7922 86.4325 26.4068 91.5842 25.3136 95.3738ZM13.7832 97.1449C4.02207 91.7451 -0.286851 76.2744 8.00551 70.5955C7.54258 73.3358 7.96031 77.6445 11.8525 83.6522C12.8665 85.2208 14.2857 86.8263 16.1912 88.5598C18.1894 90.3815 21.5663 94.1564 22.9558 99.5605C20.0314 99.804 16.8357 98.9796 13.7832 97.1449ZM28.4245 97.504C30.0094 93.1041 31.3179 85.7779 24.8255 81.5084C18.3891 77.2756 14.8559 71.4133 13.4938 68.7519C29.7271 68.6488 38.0788 90.4562 28.4245 97.504Z" fill="#F4F0ED"/>
<path d="M73.9763 96.2775C70.8265 88.4408 60.8225 79.8459 49.6994 82.3778C34.1213 86.4679 37.63 107.71 50.8493 115.129C67.4282 124.688 80.4843 110.575 73.9763 96.2775ZM64.7189 111.269C61.8895 104.781 57.7296 102.953 54.5895 98.3903C51.6864 93.9087 50.9264 90.5559 50.9426 88.2531C52.9526 91.4662 56.4178 95.8969 61.7669 99.4153C66.1975 102.329 65.8121 107.481 64.7189 111.269ZM53.1885 113.041C43.4275 107.641 39.1184 92.171 47.4108 86.4914C46.9479 89.2319 47.3657 93.5407 51.2578 99.5486C52.288 101.138 53.6658 102.697 55.5965 104.456C57.5947 106.277 60.9716 110.052 62.3611 115.456C59.4374 115.7 56.2426 114.875 53.1885 113.041ZM67.8299 113.4C69.4148 109 70.723 101.674 64.2308 97.4048C57.7957 93.1715 54.2617 87.309 52.8993 84.6476C69.1324 84.5447 77.484 106.352 67.8299 113.4Z" fill="#F4F0ED"/>
</svg>
