<svg width="113" height="26" viewBox="0 0 113 26" fill="none" xmlns="http://www.w3.org/2000/svg">
<path d="M2.10558 9.70874H12.0131V11.3957H2.10558V9.70874ZM2.3198 18.3577H13.5929V20.0714H0.3383V1.32754H13.1913V3.04127H2.3198V18.3577ZM21.4154 20.2053C20.255 20.2053 19.1572 20.0447 18.1218 19.7233C17.0864 19.3842 16.2742 18.9647 15.6851 18.4648L16.5419 16.9653C17.1132 17.3937 17.8451 17.7686 18.7377 18.0899C19.6302 18.3934 20.5674 18.5452 21.5492 18.5452C22.8881 18.5452 23.8521 18.3399 24.4412 17.9293C25.0303 17.5008 25.3248 16.9385 25.3248 16.2423C25.3248 15.7246 25.1552 15.323 24.816 15.0374C24.4947 14.7339 24.0663 14.5108 23.5307 14.3679C22.9952 14.2073 22.3972 14.0734 21.7367 13.9663C21.0762 13.8592 20.4157 13.7342 19.7552 13.5914C19.1125 13.4486 18.5234 13.2433 17.9879 12.9755C17.4524 12.6899 17.015 12.3061 16.6758 11.8241C16.3545 11.3421 16.1938 10.6995 16.1938 9.89618C16.1938 9.12857 16.4081 8.4413 16.8365 7.83435C17.2649 7.2274 17.8897 6.75434 18.7109 6.41517C19.5499 6.05814 20.5674 5.87963 21.7635 5.87963C22.6739 5.87963 23.5843 6.00459 24.4947 6.25451C25.4051 6.48657 26.1549 6.79897 26.744 7.1917L25.9139 8.71799C25.2891 8.28956 24.6197 7.98609 23.9056 7.80757C23.1916 7.61121 22.4775 7.51303 21.7635 7.51303C20.496 7.51303 19.5588 7.73617 18.9519 8.18245C18.3628 8.61088 18.0682 9.16427 18.0682 9.84263C18.0682 10.3782 18.2289 10.7977 18.5502 11.1011C18.8894 11.4046 19.3268 11.6456 19.8623 11.8241C20.4157 11.9848 21.0137 12.1187 21.6564 12.2258C22.3169 12.3329 22.9684 12.4668 23.6111 12.6274C24.2716 12.7702 24.8696 12.9755 25.4051 13.2433C25.9585 13.4932 26.3959 13.8592 26.7172 14.3412C27.0564 14.8053 27.226 15.4212 27.226 16.1888C27.226 17.0099 26.9939 17.724 26.5298 18.3309C26.0835 18.92 25.423 19.3842 24.5483 19.7233C23.6914 20.0447 22.6471 20.2053 21.4154 20.2053ZM37.9711 20.2053C36.7572 20.2053 35.6593 19.9286 34.6775 19.3752C33.6957 18.804 32.9102 17.9918 32.3211 16.9385C31.7499 15.8675 31.4643 14.5643 31.4643 13.0291C31.4643 11.4939 31.7499 10.1997 32.3211 9.14642C32.8924 8.07534 33.6689 7.26311 34.6507 6.70972C35.6326 6.15632 36.7393 5.87963 37.9711 5.87963C39.3099 5.87963 40.506 6.1831 41.5592 6.79005C42.6303 7.37914 43.4693 8.21815 44.0762 9.30709C44.6832 10.3782 44.9867 11.6188 44.9867 13.0291C44.9867 14.4572 44.6832 15.7068 44.0762 16.7779C43.4693 17.849 42.6303 18.688 41.5592 19.2949C40.506 19.9019 39.3099 20.2053 37.9711 20.2053ZM30.7145 25.2662V6.01351H32.5353V10.2443L32.3479 13.0559L32.6157 15.8942V25.2662H30.7145ZM37.8372 18.5184C38.8369 18.5184 39.7294 18.2952 40.5149 17.849C41.3004 17.3848 41.9251 16.7422 42.3893 15.921C42.8534 15.082 43.0855 14.118 43.0855 13.0291C43.0855 11.9402 42.8534 10.9851 42.3893 10.1639C41.9251 9.34279 41.3004 8.70014 40.5149 8.236C39.7294 7.77187 38.8369 7.5398 37.8372 7.5398C36.8375 7.5398 35.936 7.77187 35.1327 8.236C34.3473 8.70014 33.7225 9.34279 33.2583 10.1639C32.812 10.9851 32.5889 11.9402 32.5889 13.0291C32.5889 14.118 32.812 15.082 33.2583 15.921C33.7225 16.7422 34.3473 17.3848 35.1327 17.849C35.936 18.2952 36.8375 18.5184 37.8372 18.5184ZM48.8622 20.0714V6.01351H50.683V9.84263L50.4956 9.1732C50.8883 8.10212 51.5488 7.28988 52.4771 6.73649C53.4054 6.16525 54.5568 5.87963 55.9313 5.87963V7.72724C55.8599 7.72724 55.7885 7.72724 55.7171 7.72724C55.6457 7.70939 55.5743 7.70047 55.5029 7.70047C54.0212 7.70047 52.8609 8.15567 52.0219 9.06609C51.1829 9.95866 50.7634 11.235 50.7634 12.8952V20.0714H48.8622ZM65.2409 20.2053C63.7771 20.2053 62.4918 19.9019 61.3851 19.2949C60.2783 18.6701 59.4125 17.8222 58.7877 16.7511C58.1629 15.6622 57.8505 14.4215 57.8505 13.0291C57.8505 11.6367 58.145 10.4049 58.7341 9.33386C59.3411 8.26278 60.1622 7.42377 61.1976 6.81682C62.2508 6.19203 63.429 5.87963 64.7322 5.87963C66.0532 5.87963 67.2224 6.1831 68.24 6.79005C69.2753 7.37914 70.0876 8.21815 70.6767 9.30709C71.2658 10.3782 71.5603 11.6188 71.5603 13.0291C71.5603 13.1183 71.5514 13.2165 71.5335 13.3236C71.5335 13.4129 71.5335 13.5111 71.5335 13.6182H59.2965V12.199H70.516L69.7663 12.7613C69.7663 11.7438 69.5431 10.8423 69.0968 10.0568C68.6684 9.25353 68.0793 8.62873 67.3296 8.18245C66.5798 7.73617 65.714 7.51303 64.7322 7.51303C63.7682 7.51303 62.9024 7.73617 62.1348 8.18245C61.3672 8.62873 60.7692 9.25353 60.3408 10.0568C59.9123 10.8602 59.6981 11.7795 59.6981 12.8149V13.1094C59.6981 14.1805 59.9302 15.1266 60.3943 15.9478C60.8763 16.7511 61.5368 17.3848 62.3758 17.849C63.2327 18.2952 64.2056 18.5184 65.2945 18.5184C66.1514 18.5184 66.9457 18.3666 67.6777 18.0632C68.4274 17.7597 69.0701 17.2956 69.6056 16.6708L70.6767 17.9025C70.0519 18.6523 69.2664 19.2235 68.3203 19.6162C67.392 20.009 66.3656 20.2053 65.2409 20.2053ZM79.2056 20.2053C78.0452 20.2053 76.9474 20.0447 75.912 19.7233C74.8766 19.3842 74.0644 18.9647 73.4753 18.4648L74.3322 16.9653C74.9034 17.3937 75.6353 17.7686 76.5279 18.0899C77.4204 18.3934 78.3576 18.5452 79.3395 18.5452C80.6783 18.5452 81.6423 18.3399 82.2314 17.9293C82.8205 17.5008 83.115 16.9385 83.115 16.2423C83.115 15.7246 82.9454 15.323 82.6063 15.0374C82.2849 14.7339 81.8565 14.5108 81.321 14.3679C80.7854 14.2073 80.1874 14.0734 79.5269 13.9663C78.8664 13.8592 78.2059 13.7342 77.5454 13.5914C76.9027 13.4486 76.3137 13.2433 75.7781 12.9755C75.2426 12.6899 74.8052 12.3061 74.466 11.8241C74.1447 11.3421 73.9841 10.6995 73.9841 9.89618C73.9841 9.12857 74.1983 8.4413 74.6267 7.83435C75.0551 7.2274 75.6799 6.75434 76.5011 6.41517C77.3401 6.05814 78.3576 5.87963 79.5537 5.87963C80.4641 5.87963 81.3745 6.00459 82.2849 6.25451C83.1953 6.48657 83.9451 6.79897 84.5342 7.1917L83.7041 8.71799C83.0793 8.28956 82.4099 7.98609 81.6958 7.80757C80.9818 7.61121 80.2677 7.51303 79.5537 7.51303C78.2862 7.51303 77.349 7.73617 76.7421 8.18245C76.153 8.61088 75.8584 9.16427 75.8584 9.84263C75.8584 10.3782 76.0191 10.7977 76.3404 11.1011C76.6796 11.4046 77.117 11.6456 77.6525 11.8241C78.2059 11.9848 78.8039 12.1187 79.4466 12.2258C80.1071 12.3329 80.7586 12.4668 81.4013 12.6274C82.0618 12.7702 82.6598 12.9755 83.1953 13.2433C83.7487 13.4932 84.1861 13.8592 84.5074 14.3412C84.8466 14.8053 85.0162 15.4212 85.0162 16.1888C85.0162 17.0099 84.7841 17.724 84.32 18.3309C83.8737 18.92 83.2132 19.3842 82.3385 19.7233C81.4816 20.0447 80.4373 20.2053 79.2056 20.2053ZM92.2803 20.2053C91.1199 20.2053 90.0221 20.0447 88.9867 19.7233C87.9513 19.3842 87.1391 18.9647 86.55 18.4648L87.4069 16.9653C87.9781 17.3937 88.71 17.7686 89.6026 18.0899C90.4951 18.3934 91.4323 18.5452 92.4142 18.5452C93.753 18.5452 94.717 18.3399 95.3061 17.9293C95.8952 17.5008 96.1897 16.9385 96.1897 16.2423C96.1897 15.7246 96.0201 15.323 95.681 15.0374C95.3596 14.7339 94.9312 14.5108 94.3957 14.3679C93.8601 14.2073 93.2621 14.0734 92.6016 13.9663C91.9411 13.8592 91.2806 13.7342 90.6201 13.5914C89.9775 13.4486 89.3884 13.2433 88.8528 12.9755C88.3173 12.6899 87.8799 12.3061 87.5407 11.8241C87.2194 11.3421 87.0588 10.6995 87.0588 9.89618C87.0588 9.12857 87.273 8.4413 87.7014 7.83435C88.1298 7.2274 88.7546 6.75434 89.5758 6.41517C90.4148 6.05814 91.4323 5.87963 92.6284 5.87963C93.5388 5.87963 94.4492 6.00459 95.3596 6.25451C96.2701 6.48657 97.0198 6.79897 97.6089 7.1917L96.7788 8.71799C96.154 8.28956 95.4846 7.98609 94.7705 7.80757C94.0565 7.61121 93.3424 7.51303 92.6284 7.51303C91.3609 7.51303 90.4237 7.73617 89.8168 8.18245C89.2277 8.61088 88.9332 9.16427 88.9332 9.84263C88.9332 10.3782 89.0938 10.7977 89.4151 11.1011C89.7543 11.4046 90.1917 11.6456 90.7272 11.8241C91.2806 11.9848 91.8786 12.1187 92.5213 12.2258C93.1818 12.3329 93.8333 12.4668 94.476 12.6274C95.1365 12.7702 95.7345 12.9755 96.2701 13.2433C96.8234 13.4932 97.2608 13.8592 97.5821 14.3412C97.9213 14.8053 98.0909 15.4212 98.0909 16.1888C98.0909 17.0099 97.8588 17.724 97.3947 18.3309C96.9484 18.92 96.2879 19.3842 95.4132 19.7233C94.5563 20.0447 93.512 20.2053 92.2803 20.2053Z" fill="#31241B"/>
<path d="M100.691 12.6437C100.954 6.47617 104.332 5.78802 106.496 5.88686C108.659 5.98571 111.966 6.97917 111.704 13.1467C111.441 19.3143 108.063 20.0028 105.899 19.904C103.736 19.8051 100.429 18.8112 100.691 12.6437Z" stroke="#31241B" stroke-width="1.66197" stroke-linecap="round" stroke-linejoin="round"/>
<path d="M106.427 5.88506C105.98 6.80649 105.336 7.5454 105.281 9.14527C105.144 13.0887 107.059 13.6196 106.972 16.1234C106.9 18.1789 106.086 18.9071 105.576 19.8775" stroke="#543E2E" stroke-width="1.66197" stroke-linecap="round" stroke-linejoin="round"/>
</svg>
