<svg width="104" height="84" viewBox="0 0 104 84" fill="none" xmlns="http://www.w3.org/2000/svg">
<path d="M58.8791 49.0044C70.8899 52.0878 80.8496 63.0843 85.7419 77.8734C86.1608 79.1435 86.9501 80.2592 88.0084 81.0769C89.0666 81.8947 90.3454 82.377 91.6801 82.462C93.0148 82.547 94.3443 82.2306 95.4977 81.5536C96.6511 80.8767 97.5756 79.8701 98.1521 78.6634C103.223 67.2459 103.882 54.3544 100.004 42.479C96.1252 30.6035 87.9835 20.5867 77.1512 14.3633" stroke="#DBD0C8" stroke-width="2" stroke-linecap="round" stroke-linejoin="round"/>
<path d="M26.8592 14.4261C16.0979 20.5973 7.98673 30.5161 4.07478 42.2884C0.162842 54.0606 0.724238 66.8614 5.65176 78.246C6.17257 79.5129 7.06743 80.5908 8.21688 81.3358C9.36633 82.0808 10.7157 82.4574 12.0848 82.4155C13.4539 82.3735 14.7777 81.915 15.8794 81.101C16.9811 80.287 17.8083 79.1564 18.2506 77.86C23.1473 63.0798 33.098 52.0879 45.1088 49.0044" stroke="#DBD0C8" stroke-width="2" stroke-linecap="round" stroke-linejoin="round"/>
<path d="M51.9941 51.4953C65.1271 51.4953 74.1621 24.848 77.4969 13.1424C77.956 11.5353 77.8009 9.81487 77.0617 8.31581C76.3226 6.81676 75.0522 5.64623 73.4978 5.03193C66.6557 2.31854 59.3545 0.950042 51.9941 1.00139C44.6332 0.952898 37.332 2.32445 30.4905 5.04091C28.9361 5.65521 27.6657 6.82573 26.9266 8.32479C26.1874 9.82384 26.0323 11.5442 26.4914 13.1514C29.8262 24.848 38.8612 51.4953 51.9941 51.4953Z" stroke="#DBD0C8" stroke-width="2" stroke-linecap="round" stroke-linejoin="round"/>
<path d="M4.48492 41.0824L27.7525 60.4721" stroke="#DBD0C8" stroke-width="2" stroke-linecap="round" stroke-linejoin="round"/>
<path d="M76.2352 60.4718L99.5567 41.0372" stroke="#DBD0C8" stroke-width="2" stroke-linecap="round" stroke-linejoin="round"/>
</svg>
