<svg width="26" height="26" viewBox="0 0 32 32" fill="none" xmlns="http://www.w3.org/2000/svg">
<path d="M15.9826 1.48534C14.3263 1.48155 12.6804 1.82019 11.087 2.4887C10.7908 2.61221 10.6042 2.87626 10.5039 3.13205L10.5037 3.13236C10.4002 3.39681 10.3679 3.69819 10.4025 3.98287L10.4024 3.98288L10.4032 3.98852L10.412 4.05429L10.4124 4.05785L13.0497 25.0162C13.0791 25.2762 13.1685 25.5418 13.3325 25.7519L13.3325 25.7519C13.4996 25.966 13.7683 26.1429 14.1019 26.1162L14.1019 26.1163L14.1107 26.1154C15.0759 26.0211 16.186 25.9978 17.2626 26.0683L17.2653 26.0577L17.2648 26.0671C17.5795 26.0844 17.8361 25.9231 18.0025 25.7217C18.1662 25.5239 18.2608 25.2727 18.2999 25.0245L18.3001 25.0236L21.5659 4.03453C21.5659 4.03442 21.5659 4.03431 21.5659 4.03421C21.6109 3.74597 21.5857 3.4372 21.4871 3.16502C21.3915 2.9015 21.2076 2.62697 20.909 2.49548L20.909 2.49545L20.9037 2.49316C19.8249 2.03305 18.7192 1.72958 17.6005 1.58834C17.0589 1.51975 16.5195 1.48536 15.9826 1.48534ZM15.9826 1.48534C15.9824 1.48534 15.9822 1.48534 15.982 1.48534V1.98534L15.9832 1.48534C15.983 1.48534 15.9828 1.48534 15.9826 1.48534ZM21.8052 3.56201L21.8173 3.82231L22.0377 3.96144C24.6529 5.61286 26.9966 8.30964 28.8374 11.8342C29.0237 12.1929 29.1499 12.6447 29.1901 13.1389C29.2302 13.6324 29.1815 14.1314 29.0534 14.5734L29.0059 14.7373L29.0685 14.8961C30.6153 18.8163 31.4595 23.3617 31.5 28.0243V28.3738V28.3742C31.5005 29.0108 31.3861 29.626 31.1783 30.1436C30.9694 30.6641 30.6855 31.0382 30.3884 31.2529L30.3884 31.2529L30.3833 31.2567C30.1605 31.4221 29.9395 31.4938 29.7332 31.4949C29.4118 31.494 29.0372 31.3079 28.7009 30.8417L28.6966 30.8358L28.6922 30.83C27.1449 28.812 25.3521 27.2828 23.4074 26.3483L23.1346 26.2172L22.892 26.3981C22.7254 26.5223 22.5659 26.5716 22.4224 26.5714L22.4209 26.5714C22.3412 26.5715 22.2585 26.557 22.1734 26.5254L22.1702 26.5242C21.0835 26.1295 19.9807 25.8469 18.8687 25.6788L18.466 25.6179L18.3249 25.9999C18.1871 26.3729 18.0001 26.6511 17.8031 26.8259L17.803 26.826C17.6119 26.9957 17.4284 27.055 17.27 27.0495C16.1921 26.9784 15.081 27.0029 14.1124 27.0963H14.0368C13.7396 27.0914 13.3211 26.8243 13.041 26.1023L12.8913 25.7166L12.4844 25.7914C11.4929 25.9737 10.5106 26.2528 9.54289 26.6269L9.54286 26.6269L9.53538 26.6299C9.44728 26.6656 9.36148 26.6828 9.27836 26.6844C9.14358 26.6807 8.99614 26.6341 8.84269 26.5256L8.59687 26.3517L8.32819 26.4876C6.48101 27.4223 4.77843 28.9017 3.30269 30.8305L3.29812 30.8365L3.29374 30.8426C2.95646 31.312 2.58038 31.4992 2.25776 31.5C2.05044 31.4991 1.82838 31.427 1.60456 31.2603L1.6046 31.2603L1.59814 31.2556C1.30478 31.0444 1.02407 30.6751 0.817304 30.1599C0.61177 29.6478 0.498896 29.0389 0.500075 28.4087L0.500071 28.4068C0.490956 23.5407 1.35495 18.7822 2.98081 14.7038L3.04376 14.5459L2.99741 14.3824C2.87159 13.9384 2.82503 13.4392 2.86675 12.9462C2.90848 12.4531 3.03528 12.0023 3.22159 11.6447C5.05085 8.20384 7.3638 5.57107 9.9377 3.95203L10.1581 3.81341L10.1709 3.55337C10.1965 3.03308 10.3218 2.55259 10.5163 2.17819C10.7122 1.80077 10.9498 1.58306 11.1622 1.49278C13.2574 0.616673 15.4212 0.31898 17.567 0.605471L17.5709 0.605954C18.6665 0.743584 19.7547 1.04103 20.8229 1.4966C21.0354 1.59036 21.2713 1.81091 21.465 2.18851L21.465 2.18858C21.6575 2.56381 21.781 3.04364 21.8052 3.56201ZM1.06168 29.7277L1.06176 29.7278C1.28677 30.1238 1.65065 30.4553 2.1259 30.506C2.61322 30.558 3.02704 30.2954 3.29873 29.93C4.6452 28.1482 6.16282 26.77 7.77759 25.8436L8.17616 25.6149L7.98188 25.1985L3.72704 16.0784L3.21936 14.9902L2.80468 16.1171C1.4407 19.8238 0.726335 24.0447 0.730846 28.3363C0.724295 28.8294 0.83443 29.3274 1.06168 29.7277ZM8.34695 25.0429L8.34689 25.0429L8.35046 25.0503C8.45498 25.265 8.61687 25.4698 8.84511 25.5935C9.08447 25.7233 9.36129 25.7423 9.61755 25.6367C10.5068 25.2876 11.406 25.0195 12.3113 24.8337L12.7646 24.7406L12.7068 24.2815L10.342 5.47246L10.2412 4.671L9.56879 5.11862C7.11752 6.75046 4.96537 9.27735 3.27325 12.4689L3.27324 12.4689L3.27162 12.472C3.1445 12.7159 3.0812 13.0008 3.07586 13.2815C3.07052 13.5623 3.12286 13.8494 3.23747 14.0996L3.24112 14.1076L3.24504 14.1154L3.27338 14.172L3.27335 14.172L3.27442 14.1741L8.34695 25.0429ZM22.1024 25.5322L22.3248 25.6143L22.3699 25.5878C22.5285 25.5961 22.6861 25.5609 22.8301 25.4861L22.8303 25.486C23.0469 25.3734 23.2045 25.1873 23.3099 24.9897L23.3099 24.9897L23.3135 24.9827L28.7828 14.3272C28.783 14.3268 28.7832 14.3264 28.7834 14.3259C28.9138 14.0739 28.9761 13.7777 28.9761 13.4879C28.9761 13.1978 28.9136 12.9012 28.7829 12.6489L28.7823 12.6477C27.0712 9.36529 24.8778 6.77026 22.3728 5.10818L21.7223 4.67659L21.6023 5.44796L18.6928 24.1504L18.6173 24.6356L19.101 24.7198C20.1093 24.8955 21.1114 25.1666 22.1024 25.5322ZM31.0701 29.4459L31.0703 29.4456L30.769 28.3702L31.269 28.3703V28.3695C31.269 28.3693 31.269 28.369 31.269 28.3688L31.2691 28.0418L31.269 28.0378C31.2359 23.8933 30.5309 19.8284 29.2183 16.244L28.8274 15.1765L28.3048 16.186L27.9971 16.7803L27.9963 16.7819L23.7654 25.0251L23.543 25.4583L23.9702 25.692C25.6746 26.6245 27.2765 28.0529 28.6922 29.9232C28.8889 30.1954 29.1641 30.4156 29.5051 30.4886C29.8549 30.5636 30.193 30.4658 30.4649 30.2581C30.7388 30.0624 30.9394 29.7685 31.0701 29.4459Z" stroke="black"/>
</svg>
